<svg xmlns="http://www.w3.org/2000/svg">
  <symbol id="github-icon" viewBox="0 0 16 16">
    <path
      fill="currentColor"
      d="M8 0a8 8 0 0 0-2.53 15.59c.4.08.55-.17.55-.39v-1.36c-2.24.49-2.72-1.08-2.72-1.08a2.15 2.15 0 0 0-.9-1.2c-.73-.5.06-.49.06-.49a1.7 1.7 0 0 1 1.24.84 1.73 1.73 0 0 0 2.36.67 1.72 1.72 0 0 1 .51-1.08c-1.79-.2-3.67-.89-3.67-3.95a3.1 3.1 0 0 1 .82-2.16 2.9 2.9 0 0 1 .08-2.13s.67-.22 2.2.82a7.5 7.5 0 0 1 4 0c1.53-1.04 2.2-.82 2.2-.82a2.9 2.9 0 0 1 .08 2.13 3.1 3.1 0 0 1 .82 2.16c0 3.07-1.88 3.75-3.68 3.94a1.94 1.94 0 0 1 .55 1.5v2.22c0 .22.15.48.55.39A8 8 0 0 0 8 0Z"
    />
  </symbol>
</svg>
